<mxfile host="app.diagrams.net" modified="2022-10-27T19:53:03.349Z" agent="5.0 (Windows NT 10.0; Win64; x64) AppleWebKit/537.36 (KHTML, like Gecko) Chrome/106.0.0.0 Safari/537.36" etag="XRzZts0VP2-L2omTAqrB" version="20.0.4" type="github">
  <diagram id="hXrJHykNK_w1q5rY7eCk" name="Page-1">
    <mxGraphModel dx="4595" dy="2840" grid="0" gridSize="10" guides="1" tooltips="1" connect="1" arrows="1" fold="1" page="1" pageScale="1" pageWidth="850" pageHeight="1100" background="#FAF2F2" math="0" shadow="0">
      <root>
        <mxCell id="0" />
        <mxCell id="1" parent="0" />
        <mxCell id="pmCEqVnquUUghloOuYzt-1" value="1" style="rounded=0;whiteSpace=wrap;html=1;fillColor=#FFF0DE;strokeColor=#291D00;strokeWidth=5;fontFamily=Lexend Exa;fontSource=https%3A%2F%2Ffonts.googleapis.com%2Fcss%3Ffamily%3DLexend%2BExa;fontSize=32;fontStyle=1" vertex="1" parent="1">
          <mxGeometry x="-654" y="428" width="120" height="60" as="geometry" />
        </mxCell>
        <mxCell id="pmCEqVnquUUghloOuYzt-2" value="1" style="rounded=0;whiteSpace=wrap;html=1;fillColor=#FFF0DE;strokeColor=#291D00;strokeWidth=5;fontFamily=Lexend Exa;fontSource=https%3A%2F%2Ffonts.googleapis.com%2Fcss%3Ffamily%3DLexend%2BExa;fontSize=32;fontStyle=1" vertex="1" parent="1">
          <mxGeometry x="-342" y="428" width="120" height="60" as="geometry" />
        </mxCell>
        <mxCell id="pmCEqVnquUUghloOuYzt-4" style="edgeStyle=orthogonalEdgeStyle;rounded=0;orthogonalLoop=1;jettySize=auto;html=1;exitX=1;exitY=0.5;exitDx=0;exitDy=0;entryX=0.5;entryY=0;entryDx=0;entryDy=0;fontFamily=Lexend Exa;fontSource=https%3A%2F%2Ffonts.googleapis.com%2Fcss%3Ffamily%3DLexend%2BExa;fontSize=32;curved=1;strokeWidth=3;endArrow=block;endFill=1;strokeColor=#404E52;" edge="1" parent="1" source="pmCEqVnquUUghloOuYzt-3" target="pmCEqVnquUUghloOuYzt-1">
          <mxGeometry relative="1" as="geometry" />
        </mxCell>
        <mxCell id="pmCEqVnquUUghloOuYzt-3" value="2" style="rounded=0;whiteSpace=wrap;html=1;fillColor=#FFF0DE;strokeColor=#291D00;strokeWidth=5;fontFamily=Lexend Exa;fontSource=https%3A%2F%2Ffonts.googleapis.com%2Fcss%3Ffamily%3DLexend%2BExa;fontSize=32;fontStyle=1" vertex="1" parent="1">
          <mxGeometry x="-824" y="328" width="120" height="60" as="geometry" />
        </mxCell>
        <mxCell id="pmCEqVnquUUghloOuYzt-5" value="2" style="rounded=0;whiteSpace=wrap;html=1;fillColor=#FFF0DE;strokeColor=#291D00;strokeWidth=5;fontFamily=Lexend Exa;fontSource=https%3A%2F%2Ffonts.googleapis.com%2Fcss%3Ffamily%3DLexend%2BExa;fontSize=32;fontStyle=1" vertex="1" parent="1">
          <mxGeometry x="-342" y="352" width="120" height="60" as="geometry" />
        </mxCell>
        <mxCell id="pmCEqVnquUUghloOuYzt-7" style="edgeStyle=orthogonalEdgeStyle;curved=1;rounded=0;orthogonalLoop=1;jettySize=auto;html=1;exitX=1;exitY=0.5;exitDx=0;exitDy=0;entryX=0.5;entryY=0;entryDx=0;entryDy=0;fontFamily=Lexend Exa;fontSource=https%3A%2F%2Ffonts.googleapis.com%2Fcss%3Ffamily%3DLexend%2BExa;fontSize=32;endArrow=block;endFill=1;strokeColor=#404E52;strokeWidth=3;" edge="1" parent="1" source="pmCEqVnquUUghloOuYzt-6" target="pmCEqVnquUUghloOuYzt-5">
          <mxGeometry relative="1" as="geometry" />
        </mxCell>
        <mxCell id="pmCEqVnquUUghloOuYzt-6" value="3" style="rounded=0;whiteSpace=wrap;html=1;fillColor=#FFF0DE;strokeColor=#291D00;strokeWidth=5;fontFamily=Lexend Exa;fontSource=https%3A%2F%2Ffonts.googleapis.com%2Fcss%3Ffamily%3DLexend%2BExa;fontSize=32;fontStyle=1" vertex="1" parent="1">
          <mxGeometry x="-475" y="268" width="120" height="60" as="geometry" />
        </mxCell>
        <mxCell id="pmCEqVnquUUghloOuYzt-8" value="1" style="rounded=0;whiteSpace=wrap;html=1;fillColor=#FFF0DE;strokeColor=#291D00;strokeWidth=5;fontFamily=Lexend Exa;fontSource=https%3A%2F%2Ffonts.googleapis.com%2Fcss%3Ffamily%3DLexend%2BExa;fontSize=32;fontStyle=1" vertex="1" parent="1">
          <mxGeometry x="10" y="428" width="120" height="60" as="geometry" />
        </mxCell>
        <mxCell id="pmCEqVnquUUghloOuYzt-9" value="2" style="rounded=0;whiteSpace=wrap;html=1;fillColor=#FFF0DE;strokeColor=#291D00;strokeWidth=5;fontFamily=Lexend Exa;fontSource=https%3A%2F%2Ffonts.googleapis.com%2Fcss%3Ffamily%3DLexend%2BExa;fontSize=32;fontStyle=1" vertex="1" parent="1">
          <mxGeometry x="10" y="352" width="120" height="60" as="geometry" />
        </mxCell>
        <mxCell id="pmCEqVnquUUghloOuYzt-10" value="3" style="rounded=0;whiteSpace=wrap;html=1;fillColor=#FFF0DE;strokeColor=#291D00;strokeWidth=5;fontFamily=Lexend Exa;fontSource=https%3A%2F%2Ffonts.googleapis.com%2Fcss%3Ffamily%3DLexend%2BExa;fontSize=32;fontStyle=1" vertex="1" parent="1">
          <mxGeometry x="10" y="276" width="120" height="60" as="geometry" />
        </mxCell>
        <mxCell id="pmCEqVnquUUghloOuYzt-12" style="edgeStyle=orthogonalEdgeStyle;curved=1;rounded=0;orthogonalLoop=1;jettySize=auto;html=1;entryX=0.5;entryY=0;entryDx=0;entryDy=0;fontFamily=Lexend Exa;fontSource=https%3A%2F%2Ffonts.googleapis.com%2Fcss%3Ffamily%3DLexend%2BExa;fontSize=32;endArrow=block;endFill=1;strokeColor=#404E52;strokeWidth=3;" edge="1" parent="1" source="pmCEqVnquUUghloOuYzt-11" target="pmCEqVnquUUghloOuYzt-10">
          <mxGeometry relative="1" as="geometry" />
        </mxCell>
        <mxCell id="pmCEqVnquUUghloOuYzt-11" value="4" style="rounded=0;whiteSpace=wrap;html=1;fillColor=#FFF0DE;strokeColor=#291D00;strokeWidth=5;fontFamily=Lexend Exa;fontSource=https%3A%2F%2Ffonts.googleapis.com%2Fcss%3Ffamily%3DLexend%2BExa;fontSize=32;fontStyle=1" vertex="1" parent="1">
          <mxGeometry x="-148" y="205" width="120" height="60" as="geometry" />
        </mxCell>
        <mxCell id="pmCEqVnquUUghloOuYzt-13" value="1" style="rounded=0;whiteSpace=wrap;html=1;fillColor=#FFF0DE;strokeColor=#291D00;strokeWidth=5;fontFamily=Lexend Exa;fontSource=https%3A%2F%2Ffonts.googleapis.com%2Fcss%3Ffamily%3DLexend%2BExa;fontSize=32;fontStyle=1" vertex="1" parent="1">
          <mxGeometry x="446" y="428" width="120" height="60" as="geometry" />
        </mxCell>
        <mxCell id="pmCEqVnquUUghloOuYzt-14" value="2" style="rounded=0;whiteSpace=wrap;html=1;fillColor=#FFF0DE;strokeColor=#291D00;strokeWidth=5;fontFamily=Lexend Exa;fontSource=https%3A%2F%2Ffonts.googleapis.com%2Fcss%3Ffamily%3DLexend%2BExa;fontSize=32;fontStyle=1" vertex="1" parent="1">
          <mxGeometry x="446" y="352" width="120" height="60" as="geometry" />
        </mxCell>
        <mxCell id="pmCEqVnquUUghloOuYzt-15" value="3" style="rounded=0;whiteSpace=wrap;html=1;fillColor=#FFF0DE;strokeColor=#291D00;strokeWidth=5;fontFamily=Lexend Exa;fontSource=https%3A%2F%2Ffonts.googleapis.com%2Fcss%3Ffamily%3DLexend%2BExa;fontSize=32;fontStyle=1" vertex="1" parent="1">
          <mxGeometry x="446" y="276" width="120" height="60" as="geometry" />
        </mxCell>
        <mxCell id="pmCEqVnquUUghloOuYzt-16" value="4" style="rounded=0;whiteSpace=wrap;html=1;fillColor=#FFF0DE;strokeColor=#291D00;strokeWidth=5;fontFamily=Lexend Exa;fontSource=https%3A%2F%2Ffonts.googleapis.com%2Fcss%3Ffamily%3DLexend%2BExa;fontSize=32;fontStyle=1" vertex="1" parent="1">
          <mxGeometry x="446" y="205" width="120" height="60" as="geometry" />
        </mxCell>
        <mxCell id="pmCEqVnquUUghloOuYzt-18" style="edgeStyle=orthogonalEdgeStyle;curved=1;rounded=0;orthogonalLoop=1;jettySize=auto;html=1;entryX=0.5;entryY=0;entryDx=0;entryDy=0;fontFamily=Lexend Exa;fontSource=https%3A%2F%2Ffonts.googleapis.com%2Fcss%3Ffamily%3DLexend%2BExa;fontSize=32;endArrow=block;endFill=1;strokeColor=#404E52;strokeWidth=3;" edge="1" parent="1" source="pmCEqVnquUUghloOuYzt-17" target="pmCEqVnquUUghloOuYzt-16">
          <mxGeometry relative="1" as="geometry" />
        </mxCell>
        <mxCell id="pmCEqVnquUUghloOuYzt-17" value="5" style="rounded=0;whiteSpace=wrap;html=1;fillColor=#FFF0DE;strokeColor=#291D00;strokeWidth=5;fontFamily=Lexend Exa;fontSource=https%3A%2F%2Ffonts.googleapis.com%2Fcss%3Ffamily%3DLexend%2BExa;fontSize=32;fontStyle=1" vertex="1" parent="1">
          <mxGeometry x="276" y="126" width="120" height="60" as="geometry" />
        </mxCell>
        <mxCell id="pmCEqVnquUUghloOuYzt-19" value="push()" style="text;html=1;strokeColor=none;fillColor=none;align=center;verticalAlign=middle;whiteSpace=wrap;rounded=0;fontFamily=Lexend Exa;fontSource=https%3A%2F%2Ffonts.googleapis.com%2Fcss%3Ffamily%3DLexend%2BExa;fontSize=32;fontStyle=1" vertex="1" parent="1">
          <mxGeometry x="-759" y="283" width="154" height="30" as="geometry" />
        </mxCell>
        <mxCell id="pmCEqVnquUUghloOuYzt-20" value="push()" style="text;html=1;strokeColor=none;fillColor=none;align=center;verticalAlign=middle;whiteSpace=wrap;rounded=0;fontFamily=Lexend Exa;fontSource=https%3A%2F%2Ffonts.googleapis.com%2Fcss%3Ffamily%3DLexend%2BExa;fontSize=32;fontStyle=1" vertex="1" parent="1">
          <mxGeometry x="-412" y="214" width="154" height="30" as="geometry" />
        </mxCell>
        <mxCell id="pmCEqVnquUUghloOuYzt-21" value="push()" style="text;html=1;strokeColor=none;fillColor=none;align=center;verticalAlign=middle;whiteSpace=wrap;rounded=0;fontFamily=Lexend Exa;fontSource=https%3A%2F%2Ffonts.googleapis.com%2Fcss%3Ffamily%3DLexend%2BExa;fontSize=32;fontStyle=1" vertex="1" parent="1">
          <mxGeometry x="-88" y="156" width="154" height="30" as="geometry" />
        </mxCell>
        <mxCell id="pmCEqVnquUUghloOuYzt-22" value="push()" style="text;html=1;strokeColor=none;fillColor=none;align=center;verticalAlign=middle;whiteSpace=wrap;rounded=0;fontFamily=Lexend Exa;fontSource=https%3A%2F%2Ffonts.googleapis.com%2Fcss%3Ffamily%3DLexend%2BExa;fontSize=32;fontStyle=1" vertex="1" parent="1">
          <mxGeometry x="334" y="77" width="154" height="30" as="geometry" />
        </mxCell>
        <mxCell id="pmCEqVnquUUghloOuYzt-45" value="1" style="rounded=0;whiteSpace=wrap;html=1;fillColor=#FFF0DE;strokeColor=#291D00;strokeWidth=5;fontFamily=Lexend Exa;fontSource=https%3A%2F%2Ffonts.googleapis.com%2Fcss%3Ffamily%3DLexend%2BExa;fontSize=32;fontStyle=1" vertex="1" parent="1">
          <mxGeometry x="-824" y="898" width="120" height="60" as="geometry" />
        </mxCell>
        <mxCell id="pmCEqVnquUUghloOuYzt-46" value="2" style="rounded=0;whiteSpace=wrap;html=1;fillColor=#FFF0DE;strokeColor=#291D00;strokeWidth=5;fontFamily=Lexend Exa;fontSource=https%3A%2F%2Ffonts.googleapis.com%2Fcss%3Ffamily%3DLexend%2BExa;fontSize=32;fontStyle=1" vertex="1" parent="1">
          <mxGeometry x="-824" y="822" width="120" height="60" as="geometry" />
        </mxCell>
        <mxCell id="pmCEqVnquUUghloOuYzt-47" value="3" style="rounded=0;whiteSpace=wrap;html=1;fillColor=#FFF0DE;strokeColor=#291D00;strokeWidth=5;fontFamily=Lexend Exa;fontSource=https%3A%2F%2Ffonts.googleapis.com%2Fcss%3Ffamily%3DLexend%2BExa;fontSize=32;fontStyle=1" vertex="1" parent="1">
          <mxGeometry x="-824" y="746" width="120" height="60" as="geometry" />
        </mxCell>
        <mxCell id="pmCEqVnquUUghloOuYzt-51" style="edgeStyle=orthogonalEdgeStyle;curved=1;rounded=0;orthogonalLoop=1;jettySize=auto;html=1;entryX=0;entryY=0.5;entryDx=0;entryDy=0;fontFamily=Lexend Exa;fontSource=https%3A%2F%2Ffonts.googleapis.com%2Fcss%3Ffamily%3DLexend%2BExa;fontSize=32;endArrow=block;endFill=1;strokeColor=#404E52;strokeWidth=3;exitX=0.5;exitY=0;exitDx=0;exitDy=0;" edge="1" parent="1" source="pmCEqVnquUUghloOuYzt-48" target="pmCEqVnquUUghloOuYzt-50">
          <mxGeometry relative="1" as="geometry" />
        </mxCell>
        <mxCell id="pmCEqVnquUUghloOuYzt-48" value="4" style="rounded=0;whiteSpace=wrap;html=1;fillColor=#FFF0DE;strokeColor=#291D00;strokeWidth=5;fontFamily=Lexend Exa;fontSource=https%3A%2F%2Ffonts.googleapis.com%2Fcss%3Ffamily%3DLexend%2BExa;fontSize=32;fontStyle=1" vertex="1" parent="1">
          <mxGeometry x="-824" y="675" width="120" height="60" as="geometry" />
        </mxCell>
        <mxCell id="pmCEqVnquUUghloOuYzt-50" value="5" style="rounded=0;whiteSpace=wrap;html=1;fillColor=#FFF0DE;strokeColor=#291D00;strokeWidth=5;fontFamily=Lexend Exa;fontSource=https%3A%2F%2Ffonts.googleapis.com%2Fcss%3Ffamily%3DLexend%2BExa;fontSize=32;fontStyle=1" vertex="1" parent="1">
          <mxGeometry x="-641" y="595" width="120" height="60" as="geometry" />
        </mxCell>
        <mxCell id="pmCEqVnquUUghloOuYzt-52" value="1" style="rounded=0;whiteSpace=wrap;html=1;fillColor=#FFF0DE;strokeColor=#291D00;strokeWidth=5;fontFamily=Lexend Exa;fontSource=https%3A%2F%2Ffonts.googleapis.com%2Fcss%3Ffamily%3DLexend%2BExa;fontSize=32;fontStyle=1" vertex="1" parent="1">
          <mxGeometry x="-471" y="898" width="120" height="60" as="geometry" />
        </mxCell>
        <mxCell id="pmCEqVnquUUghloOuYzt-53" value="2" style="rounded=0;whiteSpace=wrap;html=1;fillColor=#FFF0DE;strokeColor=#291D00;strokeWidth=5;fontFamily=Lexend Exa;fontSource=https%3A%2F%2Ffonts.googleapis.com%2Fcss%3Ffamily%3DLexend%2BExa;fontSize=32;fontStyle=1" vertex="1" parent="1">
          <mxGeometry x="-471" y="822" width="120" height="60" as="geometry" />
        </mxCell>
        <mxCell id="pmCEqVnquUUghloOuYzt-56" style="edgeStyle=orthogonalEdgeStyle;curved=1;rounded=0;orthogonalLoop=1;jettySize=auto;html=1;entryX=0;entryY=0.5;entryDx=0;entryDy=0;fontFamily=Lexend Exa;fontSource=https%3A%2F%2Ffonts.googleapis.com%2Fcss%3Ffamily%3DLexend%2BExa;fontSize=32;endArrow=block;endFill=1;strokeColor=#404E52;strokeWidth=3;exitX=0.5;exitY=0;exitDx=0;exitDy=0;" edge="1" parent="1" source="pmCEqVnquUUghloOuYzt-54" target="pmCEqVnquUUghloOuYzt-55">
          <mxGeometry relative="1" as="geometry" />
        </mxCell>
        <mxCell id="pmCEqVnquUUghloOuYzt-54" value="3" style="rounded=0;whiteSpace=wrap;html=1;fillColor=#FFF0DE;strokeColor=#291D00;strokeWidth=5;fontFamily=Lexend Exa;fontSource=https%3A%2F%2Ffonts.googleapis.com%2Fcss%3Ffamily%3DLexend%2BExa;fontSize=32;fontStyle=1" vertex="1" parent="1">
          <mxGeometry x="-471" y="746" width="120" height="60" as="geometry" />
        </mxCell>
        <mxCell id="pmCEqVnquUUghloOuYzt-55" value="4" style="rounded=0;whiteSpace=wrap;html=1;fillColor=#FFF0DE;strokeColor=#291D00;strokeWidth=5;fontFamily=Lexend Exa;fontSource=https%3A%2F%2Ffonts.googleapis.com%2Fcss%3Ffamily%3DLexend%2BExa;fontSize=32;fontStyle=1" vertex="1" parent="1">
          <mxGeometry x="-329" y="669" width="120" height="60" as="geometry" />
        </mxCell>
        <mxCell id="pmCEqVnquUUghloOuYzt-58" value="1" style="rounded=0;whiteSpace=wrap;html=1;fillColor=#FFF0DE;strokeColor=#291D00;strokeWidth=5;fontFamily=Lexend Exa;fontSource=https%3A%2F%2Ffonts.googleapis.com%2Fcss%3Ffamily%3DLexend%2BExa;fontSize=32;fontStyle=1" vertex="1" parent="1">
          <mxGeometry x="-148" y="898" width="120" height="60" as="geometry" />
        </mxCell>
        <mxCell id="pmCEqVnquUUghloOuYzt-61" style="edgeStyle=orthogonalEdgeStyle;curved=1;rounded=0;orthogonalLoop=1;jettySize=auto;html=1;entryX=0;entryY=0.5;entryDx=0;entryDy=0;fontFamily=Lexend Exa;fontSource=https%3A%2F%2Ffonts.googleapis.com%2Fcss%3Ffamily%3DLexend%2BExa;fontSize=32;endArrow=block;endFill=1;strokeColor=#404E52;strokeWidth=3;exitX=0.5;exitY=0;exitDx=0;exitDy=0;" edge="1" parent="1" source="pmCEqVnquUUghloOuYzt-59" target="pmCEqVnquUUghloOuYzt-60">
          <mxGeometry relative="1" as="geometry" />
        </mxCell>
        <mxCell id="pmCEqVnquUUghloOuYzt-59" value="2" style="rounded=0;whiteSpace=wrap;html=1;fillColor=#FFF0DE;strokeColor=#291D00;strokeWidth=5;fontFamily=Lexend Exa;fontSource=https%3A%2F%2Ffonts.googleapis.com%2Fcss%3Ffamily%3DLexend%2BExa;fontSize=32;fontStyle=1" vertex="1" parent="1">
          <mxGeometry x="-148" y="822" width="120" height="60" as="geometry" />
        </mxCell>
        <mxCell id="pmCEqVnquUUghloOuYzt-60" value="3" style="rounded=0;whiteSpace=wrap;html=1;fillColor=#FFF0DE;strokeColor=#291D00;strokeWidth=5;fontFamily=Lexend Exa;fontSource=https%3A%2F%2Ffonts.googleapis.com%2Fcss%3Ffamily%3DLexend%2BExa;fontSize=32;fontStyle=1" vertex="1" parent="1">
          <mxGeometry x="10" y="723" width="120" height="60" as="geometry" />
        </mxCell>
        <mxCell id="pmCEqVnquUUghloOuYzt-64" style="edgeStyle=orthogonalEdgeStyle;curved=1;rounded=0;orthogonalLoop=1;jettySize=auto;html=1;entryX=0;entryY=0.5;entryDx=0;entryDy=0;fontFamily=Lexend Exa;fontSource=https%3A%2F%2Ffonts.googleapis.com%2Fcss%3Ffamily%3DLexend%2BExa;fontSize=32;endArrow=block;endFill=1;strokeColor=#404E52;strokeWidth=3;exitX=0.5;exitY=0;exitDx=0;exitDy=0;" edge="1" parent="1" source="pmCEqVnquUUghloOuYzt-62" target="pmCEqVnquUUghloOuYzt-63">
          <mxGeometry relative="1" as="geometry" />
        </mxCell>
        <mxCell id="pmCEqVnquUUghloOuYzt-62" value="1" style="rounded=0;whiteSpace=wrap;html=1;fillColor=#FFF0DE;strokeColor=#291D00;strokeWidth=5;fontFamily=Lexend Exa;fontSource=https%3A%2F%2Ffonts.googleapis.com%2Fcss%3Ffamily%3DLexend%2BExa;fontSize=32;fontStyle=1" vertex="1" parent="1">
          <mxGeometry x="246" y="898" width="120" height="60" as="geometry" />
        </mxCell>
        <mxCell id="pmCEqVnquUUghloOuYzt-63" value="2" style="rounded=0;whiteSpace=wrap;html=1;fillColor=#FFF0DE;strokeColor=#291D00;strokeWidth=5;fontFamily=Lexend Exa;fontSource=https%3A%2F%2Ffonts.googleapis.com%2Fcss%3Ffamily%3DLexend%2BExa;fontSize=32;fontStyle=1" vertex="1" parent="1">
          <mxGeometry x="417" y="792" width="120" height="60" as="geometry" />
        </mxCell>
        <mxCell id="pmCEqVnquUUghloOuYzt-65" value="pop()" style="text;html=1;strokeColor=none;fillColor=none;align=center;verticalAlign=middle;whiteSpace=wrap;rounded=0;fontFamily=Lexend Exa;fontSource=https%3A%2F%2Ffonts.googleapis.com%2Fcss%3Ffamily%3DLexend%2BExa;fontSize=32;fontStyle=1" vertex="1" parent="1">
          <mxGeometry x="-750" y="553" width="154" height="30" as="geometry" />
        </mxCell>
        <mxCell id="pmCEqVnquUUghloOuYzt-66" value="pop()" style="text;html=1;strokeColor=none;fillColor=none;align=center;verticalAlign=middle;whiteSpace=wrap;rounded=0;fontFamily=Lexend Exa;fontSource=https%3A%2F%2Ffonts.googleapis.com%2Fcss%3Ffamily%3DLexend%2BExa;fontSize=32;fontStyle=1" vertex="1" parent="1">
          <mxGeometry x="-419" y="620" width="154" height="30" as="geometry" />
        </mxCell>
        <mxCell id="pmCEqVnquUUghloOuYzt-67" value="pop()" style="text;html=1;strokeColor=none;fillColor=none;align=center;verticalAlign=middle;whiteSpace=wrap;rounded=0;fontFamily=Lexend Exa;fontSource=https%3A%2F%2Ffonts.googleapis.com%2Fcss%3Ffamily%3DLexend%2BExa;fontSize=32;fontStyle=1" vertex="1" parent="1">
          <mxGeometry x="-65" y="680" width="154" height="30" as="geometry" />
        </mxCell>
        <mxCell id="pmCEqVnquUUghloOuYzt-68" value="pop()" style="text;html=1;strokeColor=none;fillColor=none;align=center;verticalAlign=middle;whiteSpace=wrap;rounded=0;fontFamily=Lexend Exa;fontSource=https%3A%2F%2Ffonts.googleapis.com%2Fcss%3Ffamily%3DLexend%2BExa;fontSize=32;fontStyle=1" vertex="1" parent="1">
          <mxGeometry x="306" y="746" width="154" height="30" as="geometry" />
        </mxCell>
        <mxCell id="pmCEqVnquUUghloOuYzt-69" value="main()" style="rounded=0;whiteSpace=wrap;html=1;fillColor=#FFF0DE;strokeColor=#291D00;strokeWidth=5;fontFamily=Lexend Exa;fontSource=https%3A%2F%2Ffonts.googleapis.com%2Fcss%3Ffamily%3DLexend%2BExa;fontSize=32;fontStyle=1" vertex="1" parent="1">
          <mxGeometry x="-196" y="1716" width="177" height="83" as="geometry" />
        </mxCell>
        <mxCell id="pmCEqVnquUUghloOuYzt-70" value="Stack" style="endArrow=none;html=1;rounded=0;fontFamily=Lexend Exa;fontSource=https%3A%2F%2Ffonts.googleapis.com%2Fcss%3Ffamily%3DLexend%2BExa;fontSize=32;strokeColor=#404E52;strokeWidth=8;curved=1;labelBackgroundColor=none;verticalAlign=top;" edge="1" parent="1">
          <mxGeometry width="50" height="50" relative="1" as="geometry">
            <mxPoint x="-773.5" y="1827" as="sourcePoint" />
            <mxPoint x="-485.5" y="1826" as="targetPoint" />
          </mxGeometry>
        </mxCell>
        <mxCell id="pmCEqVnquUUghloOuYzt-71" value="Stack" style="endArrow=none;html=1;rounded=0;fontFamily=Lexend Exa;fontSource=https%3A%2F%2Ffonts.googleapis.com%2Fcss%3Ffamily%3DLexend%2BExa;fontSize=32;strokeColor=#404E52;strokeWidth=8;curved=1;labelBackgroundColor=none;verticalAlign=top;" edge="1" parent="1">
          <mxGeometry width="50" height="50" relative="1" as="geometry">
            <mxPoint x="-243" y="1824" as="sourcePoint" />
            <mxPoint x="45" y="1823" as="targetPoint" />
          </mxGeometry>
        </mxCell>
        <mxCell id="pmCEqVnquUUghloOuYzt-72" value="main()" style="shape=flexArrow;endArrow=classic;html=1;rounded=0;labelBackgroundColor=none;fontFamily=Lexend Exa;fontSource=https%3A%2F%2Ffonts.googleapis.com%2Fcss%3Ffamily%3DLexend%2BExa;fontSize=32;strokeColor=#404E52;strokeWidth=8;curved=1;endWidth=42.85714285714286;endSize=16.2;width=61.42857142857143;" edge="1" parent="1">
          <mxGeometry width="50" height="50" relative="1" as="geometry">
            <mxPoint x="-459" y="1749" as="sourcePoint" />
            <mxPoint x="-272" y="1745" as="targetPoint" />
          </mxGeometry>
        </mxCell>
        <mxCell id="pmCEqVnquUUghloOuYzt-73" value="main()" style="rounded=0;whiteSpace=wrap;html=1;fillColor=#FFF0DE;strokeColor=#291D00;strokeWidth=5;fontFamily=Lexend Exa;fontSource=https%3A%2F%2Ffonts.googleapis.com%2Fcss%3Ffamily%3DLexend%2BExa;fontSize=32;fontStyle=1" vertex="1" parent="1">
          <mxGeometry x="364" y="1716" width="177" height="83" as="geometry" />
        </mxCell>
        <mxCell id="pmCEqVnquUUghloOuYzt-74" value="Stack" style="endArrow=none;html=1;rounded=0;fontFamily=Lexend Exa;fontSource=https%3A%2F%2Ffonts.googleapis.com%2Fcss%3Ffamily%3DLexend%2BExa;fontSize=32;strokeColor=#404E52;strokeWidth=8;curved=1;labelBackgroundColor=none;verticalAlign=top;" edge="1" parent="1">
          <mxGeometry width="50" height="50" relative="1" as="geometry">
            <mxPoint x="317" y="1824" as="sourcePoint" />
            <mxPoint x="605" y="1823" as="targetPoint" />
          </mxGeometry>
        </mxCell>
        <mxCell id="pmCEqVnquUUghloOuYzt-75" value="foo()" style="shape=flexArrow;endArrow=classic;html=1;rounded=0;labelBackgroundColor=none;fontFamily=Lexend Exa;fontSource=https%3A%2F%2Ffonts.googleapis.com%2Fcss%3Ffamily%3DLexend%2BExa;fontSize=32;strokeColor=#404E52;strokeWidth=8;curved=1;endWidth=42.85714285714286;endSize=16.2;width=61.42857142857143;" edge="1" parent="1">
          <mxGeometry width="50" height="50" relative="1" as="geometry">
            <mxPoint x="94" y="1662" as="sourcePoint" />
            <mxPoint x="281" y="1658" as="targetPoint" />
          </mxGeometry>
        </mxCell>
        <mxCell id="pmCEqVnquUUghloOuYzt-76" value="foo()" style="rounded=0;whiteSpace=wrap;html=1;fillColor=#FFF0DE;strokeColor=#291D00;strokeWidth=5;fontFamily=Lexend Exa;fontSource=https%3A%2F%2Ffonts.googleapis.com%2Fcss%3Ffamily%3DLexend%2BExa;fontSize=32;fontStyle=1" vertex="1" parent="1">
          <mxGeometry x="364" y="1613" width="177" height="83" as="geometry" />
        </mxCell>
        <mxCell id="pmCEqVnquUUghloOuYzt-77" value="main()" style="rounded=0;whiteSpace=wrap;html=1;fillColor=#FFF0DE;strokeColor=#291D00;strokeWidth=5;fontFamily=Lexend Exa;fontSource=https%3A%2F%2Ffonts.googleapis.com%2Fcss%3Ffamily%3DLexend%2BExa;fontSize=32;fontStyle=1" vertex="1" parent="1">
          <mxGeometry x="919" y="1711" width="177" height="83" as="geometry" />
        </mxCell>
        <mxCell id="pmCEqVnquUUghloOuYzt-78" value="Stack" style="endArrow=none;html=1;rounded=0;fontFamily=Lexend Exa;fontSource=https%3A%2F%2Ffonts.googleapis.com%2Fcss%3Ffamily%3DLexend%2BExa;fontSize=32;strokeColor=#404E52;strokeWidth=8;curved=1;labelBackgroundColor=none;verticalAlign=top;" edge="1" parent="1">
          <mxGeometry width="50" height="50" relative="1" as="geometry">
            <mxPoint x="872" y="1819" as="sourcePoint" />
            <mxPoint x="1160" y="1818" as="targetPoint" />
          </mxGeometry>
        </mxCell>
        <mxCell id="pmCEqVnquUUghloOuYzt-79" value="bar()" style="shape=flexArrow;endArrow=classic;html=1;rounded=0;labelBackgroundColor=none;fontFamily=Lexend Exa;fontSource=https%3A%2F%2Ffonts.googleapis.com%2Fcss%3Ffamily%3DLexend%2BExa;fontSize=32;strokeColor=#404E52;strokeWidth=8;curved=1;endWidth=42.85714285714286;endSize=16.2;width=61.42857142857143;" edge="1" parent="1">
          <mxGeometry width="50" height="50" relative="1" as="geometry">
            <mxPoint x="649" y="1555" as="sourcePoint" />
            <mxPoint x="836" y="1551" as="targetPoint" />
          </mxGeometry>
        </mxCell>
        <mxCell id="pmCEqVnquUUghloOuYzt-80" value="foo()" style="rounded=0;whiteSpace=wrap;html=1;fillColor=#FFF0DE;strokeColor=#291D00;strokeWidth=5;fontFamily=Lexend Exa;fontSource=https%3A%2F%2Ffonts.googleapis.com%2Fcss%3Ffamily%3DLexend%2BExa;fontSize=32;fontStyle=1" vertex="1" parent="1">
          <mxGeometry x="919" y="1608" width="177" height="83" as="geometry" />
        </mxCell>
        <mxCell id="pmCEqVnquUUghloOuYzt-81" value="bar()" style="rounded=0;whiteSpace=wrap;html=1;fillColor=#FFF0DE;strokeColor=#291D00;strokeWidth=5;fontFamily=Lexend Exa;fontSource=https%3A%2F%2Ffonts.googleapis.com%2Fcss%3Ffamily%3DLexend%2BExa;fontSize=32;fontStyle=1" vertex="1" parent="1">
          <mxGeometry x="919" y="1498" width="177" height="83" as="geometry" />
        </mxCell>
        <mxCell id="pmCEqVnquUUghloOuYzt-82" value="main()" style="rounded=0;whiteSpace=wrap;html=1;fillColor=#FFF0DE;strokeColor=#291D00;strokeWidth=5;fontFamily=Lexend Exa;fontSource=https%3A%2F%2Ffonts.googleapis.com%2Fcss%3Ffamily%3DLexend%2BExa;fontSize=32;fontStyle=1" vertex="1" parent="1">
          <mxGeometry x="1465" y="1699" width="177" height="83" as="geometry" />
        </mxCell>
        <mxCell id="pmCEqVnquUUghloOuYzt-83" value="Stack" style="endArrow=none;html=1;rounded=0;fontFamily=Lexend Exa;fontSource=https%3A%2F%2Ffonts.googleapis.com%2Fcss%3Ffamily%3DLexend%2BExa;fontSize=32;strokeColor=#404E52;strokeWidth=8;curved=1;labelBackgroundColor=none;verticalAlign=top;" edge="1" parent="1">
          <mxGeometry width="50" height="50" relative="1" as="geometry">
            <mxPoint x="1418" y="1807" as="sourcePoint" />
            <mxPoint x="1706" y="1806" as="targetPoint" />
          </mxGeometry>
        </mxCell>
        <mxCell id="pmCEqVnquUUghloOuYzt-84" value="return" style="shape=flexArrow;endArrow=classic;html=1;rounded=0;labelBackgroundColor=none;fontFamily=Lexend Exa;fontSource=https%3A%2F%2Ffonts.googleapis.com%2Fcss%3Ffamily%3DLexend%2BExa;fontSize=32;strokeColor=#404E52;strokeWidth=8;curved=1;endWidth=42.85714285714286;endSize=16.2;width=61.42857142857143;" edge="1" parent="1">
          <mxGeometry width="50" height="50" relative="1" as="geometry">
            <mxPoint x="1213" y="1537" as="sourcePoint" />
            <mxPoint x="1400" y="1533" as="targetPoint" />
          </mxGeometry>
        </mxCell>
        <mxCell id="pmCEqVnquUUghloOuYzt-85" value="foo()" style="rounded=0;whiteSpace=wrap;html=1;fillColor=#FFF0DE;strokeColor=#291D00;strokeWidth=5;fontFamily=Lexend Exa;fontSource=https%3A%2F%2Ffonts.googleapis.com%2Fcss%3Ffamily%3DLexend%2BExa;fontSize=32;fontStyle=1" vertex="1" parent="1">
          <mxGeometry x="1465" y="1596" width="177" height="83" as="geometry" />
        </mxCell>
        <mxCell id="pmCEqVnquUUghloOuYzt-87" value="main()" style="rounded=0;whiteSpace=wrap;html=1;fillColor=#FFF0DE;strokeColor=#291D00;strokeWidth=5;fontFamily=Lexend Exa;fontSource=https%3A%2F%2Ffonts.googleapis.com%2Fcss%3Ffamily%3DLexend%2BExa;fontSize=32;fontStyle=1" vertex="1" parent="1">
          <mxGeometry x="2015" y="1690" width="177" height="83" as="geometry" />
        </mxCell>
        <mxCell id="pmCEqVnquUUghloOuYzt-88" value="Stack" style="endArrow=none;html=1;rounded=0;fontFamily=Lexend Exa;fontSource=https%3A%2F%2Ffonts.googleapis.com%2Fcss%3Ffamily%3DLexend%2BExa;fontSize=32;strokeColor=#404E52;strokeWidth=8;curved=1;labelBackgroundColor=none;verticalAlign=top;" edge="1" parent="1">
          <mxGeometry width="50" height="50" relative="1" as="geometry">
            <mxPoint x="1968" y="1798" as="sourcePoint" />
            <mxPoint x="2256" y="1797" as="targetPoint" />
          </mxGeometry>
        </mxCell>
        <mxCell id="pmCEqVnquUUghloOuYzt-89" value="return" style="shape=flexArrow;endArrow=classic;html=1;rounded=0;labelBackgroundColor=none;fontFamily=Lexend Exa;fontSource=https%3A%2F%2Ffonts.googleapis.com%2Fcss%3Ffamily%3DLexend%2BExa;fontSize=32;strokeColor=#404E52;strokeWidth=8;curved=1;endWidth=42.85714285714286;endSize=16.2;width=61.42857142857143;" edge="1" parent="1">
          <mxGeometry width="50" height="50" relative="1" as="geometry">
            <mxPoint x="1767" y="1642" as="sourcePoint" />
            <mxPoint x="1954" y="1638" as="targetPoint" />
          </mxGeometry>
        </mxCell>
        <mxCell id="pmCEqVnquUUghloOuYzt-92" value="Stack" style="endArrow=none;html=1;rounded=0;fontFamily=Lexend Exa;fontSource=https%3A%2F%2Ffonts.googleapis.com%2Fcss%3Ffamily%3DLexend%2BExa;fontSize=32;strokeColor=#404E52;strokeWidth=8;curved=1;labelBackgroundColor=none;verticalAlign=top;" edge="1" parent="1">
          <mxGeometry width="50" height="50" relative="1" as="geometry">
            <mxPoint x="2526" y="1793" as="sourcePoint" />
            <mxPoint x="2814" y="1792" as="targetPoint" />
          </mxGeometry>
        </mxCell>
        <mxCell id="pmCEqVnquUUghloOuYzt-93" value="return" style="shape=flexArrow;endArrow=classic;html=1;rounded=0;labelBackgroundColor=none;fontFamily=Lexend Exa;fontSource=https%3A%2F%2Ffonts.googleapis.com%2Fcss%3Ffamily%3DLexend%2BExa;fontSize=32;strokeColor=#404E52;strokeWidth=8;curved=1;endWidth=42.85714285714286;endSize=16.2;width=61.42857142857143;" edge="1" parent="1">
          <mxGeometry width="50" height="50" relative="1" as="geometry">
            <mxPoint x="2323" y="1733.5" as="sourcePoint" />
            <mxPoint x="2510" y="1729.5" as="targetPoint" />
          </mxGeometry>
        </mxCell>
      </root>
    </mxGraphModel>
  </diagram>
</mxfile>
